<svg width="203" height="196" viewBox="0 0 203 196" fill="none" xmlns="http://www.w3.org/2000/svg">
<g filter="url(#filter0_d)">
<path d="M60.7322 126.703C60.6203 126.705 60.5081 126.706 60.3956 126.706H19.0388C10.7331 126.706 4 119.973 4 111.667V67.8042C4 59.4985 10.7331 52.7654 19.0388 52.7654H60.3956C60.946 52.7654 61.4895 52.7949 62.0246 52.8526L111.276 16.8305C112.932 15.6194 115.262 16.802 115.262 18.8536V161.647C115.262 163.698 112.932 164.881 111.276 163.67L60.7322 126.703Z" fill="#83CBA4"/>
</g>
<g filter="url(#filter1_d)">
<rect x="129.238" width="69.5767" height="187.857" fill="#FFF500"/>
</g>
<path d="M177.259 127.357C176.632 126.103 176.123 123.871 175.731 120.66C170.679 125.908 164.648 128.531 157.638 128.531C151.372 128.531 146.222 126.769 142.188 123.244C138.193 119.681 136.196 115.177 136.196 109.733C136.196 103.114 138.702 97.9839 143.715 94.3416C148.767 90.6602 155.856 88.8196 164.981 88.8196H175.555V83.8262C175.555 80.0273 174.419 77.0117 172.148 74.7794C169.876 72.5079 166.528 71.3722 162.102 71.3722C158.225 71.3722 154.975 72.3512 152.351 74.3094C149.727 76.2676 148.415 78.637 148.415 81.4176H137.488C137.488 78.2454 138.604 75.1906 140.837 72.2533C143.108 69.2769 146.163 66.9271 150.001 65.2039C153.878 63.4807 158.127 62.6191 162.749 62.6191C170.072 62.6191 175.81 64.4598 179.961 68.1412C184.112 71.7834 186.266 76.8159 186.423 83.2387V112.494C186.423 118.329 187.167 122.97 188.655 126.417V127.357H177.259ZM159.224 119.073C162.631 119.073 165.862 118.192 168.917 116.43C171.972 114.668 174.184 112.376 175.555 109.557V96.5152H167.037C153.721 96.5152 147.064 100.412 147.064 108.206C147.064 111.613 148.199 114.276 150.471 116.195C152.742 118.114 155.66 119.073 159.224 119.073Z" fill="black"/>
<defs>
<filter id="filter0_d" x="0" y="16.3427" width="119.262" height="155.815" filterUnits="userSpaceOnUse" color-interpolation-filters="sRGB">
<feFlood flood-opacity="0" result="BackgroundImageFix"/>
<feColorMatrix in="SourceAlpha" type="matrix" values="0 0 0 0 0 0 0 0 0 0 0 0 0 0 0 0 0 0 127 0"/>
<feOffset dy="4"/>
<feGaussianBlur stdDeviation="2"/>
<feColorMatrix type="matrix" values="0 0 0 0 0 0 0 0 0 0 0 0 0 0 0 0 0 0 0.25 0"/>
<feBlend mode="normal" in2="BackgroundImageFix" result="effect1_dropShadow"/>
<feBlend mode="normal" in="SourceGraphic" in2="effect1_dropShadow" result="shape"/>
</filter>
<filter id="filter1_d" x="125.238" y="0" width="77.5767" height="195.857" filterUnits="userSpaceOnUse" color-interpolation-filters="sRGB">
<feFlood flood-opacity="0" result="BackgroundImageFix"/>
<feColorMatrix in="SourceAlpha" type="matrix" values="0 0 0 0 0 0 0 0 0 0 0 0 0 0 0 0 0 0 127 0"/>
<feOffset dy="4"/>
<feGaussianBlur stdDeviation="2"/>
<feColorMatrix type="matrix" values="0 0 0 0 0 0 0 0 0 0 0 0 0 0 0 0 0 0 0.25 0"/>
<feBlend mode="normal" in2="BackgroundImageFix" result="effect1_dropShadow"/>
<feBlend mode="normal" in="SourceGraphic" in2="effect1_dropShadow" result="shape"/>
</filter>
</defs>
</svg>
